<svg xmlns="http://www.w3.org/2000/svg" xmlns:xlink="http://www.w3.org/1999/xlink" fill="none" version="1.1" width="116" height="37" viewBox="0 0 116 37"><g style="mix-blend-mode:passthrough"><g style="mix-blend-mode:passthrough"><path d="M6.294916746139527,11.25Q8.429036746139527,11.25,9.667966746139527,12.159505Q10.914066746139527,13.06901,10.914066746139527,14.73763Q10.914066746139527,15.36068,10.699216746139527,15.847660000000001Q10.491536746139527,16.327469999999998,10.140626746139526,16.67838Q9.789716746139526,17.0293,9.324216746139527,17.26562Q8.865886746139527,17.50195,8.378906746139528,17.63086Q8.973306746139526,17.73828,9.510416746139526,18.01042Q10.054686746139526,18.27539,10.462886746139526,18.71224Q10.871096746139527,19.141930000000002,11.100256746139527,19.72917Q11.329426746139527,20.316409999999998,11.329426746139527,21.06836Q11.329426746139527,21.9349,10.957026746139526,22.6582Q10.584636746139527,23.381500000000003,9.897136746139527,23.9043Q9.216796746139526,24.4199,8.257166746139525,24.7135Q7.304686746139526,25,6.158856746139526,25L1.6041667461395264,25L1.6041667461395264,11.25L6.294916746139527,11.25ZM4.2897167461395265,16.75L5.786456746139526,16.75Q6.796226746139526,16.75,7.476566746139526,16.32031Q8.164066746139525,15.89062,8.164066746139525,14.89518Q8.164066746139525,14.028649999999999,7.555336746139527,13.59896Q6.953776746139527,13.169270000000001,5.872396746139526,13.169270000000001L4.2897167461395265,13.169270000000001L4.2897167461395265,16.75ZM4.2897167461395265,23.0807L5.807946746139526,23.0807Q6.380856746139527,23.0807,6.882166746139526,22.9661Q7.390626746139526,22.8444,7.7630167461395265,22.5866Q8.142576746139525,22.3288,8.350256746139525,21.8919Q8.557946746139526,21.4551,8.557946746139526,20.839190000000002Q8.557946746139526,20.25195,8.314456746139527,19.83659Q8.070966746139526,19.421219999999998,7.677086746139526,19.16341Q7.283206746139526,18.9056,6.7532567461395265,18.79102Q6.223306746139526,18.66927,5.657556746139527,18.66927L4.2897167461395265,18.66927L4.2897167461395265,23.0807ZM13.628266746139527,18.13216Q13.628266746139527,17.29427,13.957666746139527,16.61393Q14.287066746139526,15.92643,14.881466746139527,15.45378Q15.475866746139527,14.97396,16.277966746139526,14.716149999999999Q17.080066746139526,14.45833,18.054066746139526,14.45833Q18.404966746139525,14.45833,18.798866746139527,14.45833Q19.192666746139526,14.45833,19.543666746139525,14.45833L24.012366746139527,14.45833L24.012366746139527,16.3776L23.174466746139526,16.3776L21.677766746139525,16.16276Q21.985666746139525,16.54948,22.193366746139528,17.08659Q22.408166746139525,17.61654,22.408166746139525,18.17513Q22.408166746139525,18.9987,22.100266746139525,19.67188Q21.792366746139525,20.33789,21.205066746139526,20.817709999999998Q20.624966746139528,21.290399999999998,19.822966746139528,21.541Q19.020866746139525,21.7917,18.032566746139526,21.7917Q17.40946674613953,21.7917,16.972666746139524,21.6986Q16.313766746139528,21.949199999999998,16.313766746139528,22.429000000000002Q16.313766746139528,23.0807,17.48116674613953,23.0807L19.944666746139525,23.0807Q21.656266746139526,23.0807,22.665966746139528,23.847Q23.682966746139527,24.613300000000002,23.682966746139527,26.1816Q23.682966746139527,27.0482,23.281866746139528,27.7572Q22.888066746139526,28.4661,22.150366746139525,28.9746Q21.419966746139526,29.4902,20.381466746139527,29.7624Q19.350266746139525,30.0417,18.075566746139526,30.0417Q15.719366746139526,30.0417,14.351566746139527,29.1966Q12.990866746139526,28.3587,12.990866746139526,26.7474Q12.990866746139526,25.9668,13.485066746139527,25.415399999999998Q13.979166746139526,24.8711,14.817066746139526,24.5775Q14.466166746139526,24.348300000000002,14.186866746139527,23.9902Q13.914666746139526,23.625,13.914666746139526,23.0449Q13.914666746139526,22.3789,14.344366746139526,21.8919Q14.774066746139527,21.404899999999998,15.475866746139527,21.11849Q14.752566746139527,20.75325,14.186866746139527,20.02995Q13.628266746139527,19.299480000000003,13.628266746139527,18.13216ZM16.29236674613953,25Q15.869766746139526,25.1862,15.626266746139526,25.537100000000002Q15.389966746139526,25.887999999999998,15.389966746139526,26.3965Q15.389966746139526,27.212899999999998,16.03446674613953,27.6641Q16.686166746139527,28.1224,18.161466746139528,28.1224Q18.956366746139526,28.1224,19.514966746139525,27.972Q20.073566746139527,27.8216,20.438766746139525,27.5638Q20.804066746139526,27.306,20.968766746139526,26.976599999999998Q21.133466746139526,26.6543,21.133466746139526,26.3034Q21.133466746139526,25.5586,20.646466746139527,25.2793Q20.159466746139525,25,19.264366746139526,25L16.29236674613953,25ZM19.830066746139526,18.16797Q19.830066746139526,17.2513,19.321566746139528,16.81445Q18.820266746139527,16.3776,18.032566746139526,16.3776Q17.21616674613953,16.3776,16.707666746139527,16.828780000000002Q16.206366746139526,17.27279,16.206366746139526,18.125Q16.206366746139526,19.02018,16.72196674613953,19.44987Q17.237666746139524,19.87239,18.032566746139526,19.87239Q18.841766746139527,19.87239,19.335966746139526,19.44987Q19.830066746139526,19.02018,19.830066746139526,18.16797ZM31.395866746139525,11.25L36.394566746139525,11.25Q37.53316674613953,11.25,38.39256674613953,11.572266Q39.25196674613952,11.887369,39.832066746139525,12.44596Q40.41926674613953,12.9974,40.712866746139525,13.74219Q41.01366674613953,14.47982,41.01366674613953,15.35352Q41.01366674613953,16.16276,40.755866746139525,16.77864Q40.50516674613953,17.39453,40.104166746139526,17.86719Q39.710266746139524,18.33268,39.22326674613953,18.64062Q38.743466746139525,18.94857,38.285166746139524,19.141930000000002L41.77996674613953,25L38.72196674613953,25L35.84306674613953,19.58594L34.01696674613952,19.58594L34.01696674613952,25L31.395866746139525,25L31.395866746139525,11.25ZM34.01696674613952,17.66667L35.35616674613953,17.66667Q36.60936674613953,17.66667,37.42576674613952,17.151040000000002Q38.242166746139524,16.62825,38.242166746139524,15.41797Q38.242166746139524,14.315100000000001,37.590466746139526,13.74219Q36.93876674613953,13.169270000000001,35.68556674613953,13.169270000000001L34.01696674613952,13.169270000000001L34.01696674613952,17.66667ZM52.70116674613953,20.5026L45.59696674613953,20.5026L45.59696674613953,20.58138Q45.59696674613953,21.8418,46.48506674613952,22.4648Q47.38016674613953,23.0807,48.833966746139524,23.0807Q49.693366746139525,23.0807,50.35936674613953,22.9518Q51.03256674613953,22.8158,51.648466746139526,22.5866L52.15686674613953,24.319699999999997Q51.519566746139525,24.606099999999998,50.63866674613953,24.8066Q49.757766746139524,25,48.590466746139526,25Q47.42316674613953,25,46.399066746139525,24.706400000000002Q45.382166746139525,24.4056,44.60876674613953,23.7682Q43.835266746139524,23.1237,43.384066746139524,22.1426Q42.94006674613953,21.161459999999998,42.94006674613953,19.79362Q42.94006674613953,18.59766,43.31246674613953,17.61654Q43.68486674613953,16.63542,44.365266746139525,15.933589999999999Q45.04556674613953,15.22461,46.01236674613953,14.84505Q46.986366746139524,14.45833,48.15366674613953,14.45833Q50.237666746139524,14.45833,51.46936674613953,15.747399999999999Q52.70116674613953,17.0293,52.70116674613953,19.30664L52.70116674613953,20.5026ZM50.04426674613953,18.58333Q50.04426674613953,18.15364,49.929666746139524,17.7526Q49.822266746139526,17.3444,49.57876674613953,17.036459999999998Q49.335266746139524,16.72852,48.94856674613953,16.55664Q48.56896674613952,16.3776,48.039066746139525,16.3776Q47.05076674613952,16.3776,46.41336674613952,16.98633Q45.77606674613953,17.59505,45.63996674613953,18.58333L50.04426674613953,18.58333ZM57.60676674613953,25L55.01436674613953,25L55.01436674613953,14.45833L57.01236674613953,14.45833L57.34176674613953,15.91211Q58.072266746139526,15.24609,58.902966746139526,14.85221Q59.740866746139524,14.45833,60.84376674613953,14.45833Q61.93946674613952,14.45833,62.68426674613953,14.85938Q63.43616674613953,15.253250000000001,63.808566746139526,15.99088Q64.56056674613953,15.274740000000001,65.46286674613953,14.86654Q66.36526674613953,14.45833,67.43946674613953,14.45833Q69.09376674613952,14.45833,69.94596674613953,15.35352Q70.80536674613953,16.24154,70.80536674613953,17.90299L70.80536674613953,25L68.21286674613953,25L68.21286674613953,18.182290000000002Q68.21286674613953,17.3444,67.81186674613953,16.86458Q67.41796674613953,16.3776,66.60156674613953,16.3776Q65.96416674613953,16.3776,65.32686674613953,16.70703Q64.68946674613952,17.0293,64.18816674613953,17.63802Q64.20966674613953,17.78841,64.20966674613953,17.91016Q64.20966674613953,18.0319,64.20966674613953,18.182290000000002L64.20966674613953,25L61.61006674613952,25L61.61006674613952,18.182290000000002Q61.61006674613952,17.3444,61.21616674613953,16.86458Q60.822266746139526,16.3776,60.005866746139525,16.3776Q59.368466746139525,16.3776,58.73826674613952,16.735680000000002Q58.115266746139525,17.09375,57.60676674613953,17.723959999999998L57.60676674613953,25ZM83.76756674613952,19.643230000000003Q83.76756674613952,20.90364,83.35936674613953,21.9062Q82.95116674613952,22.9089,82.22786674613953,23.5964Q81.50456674613953,24.276699999999998,80.53056674613953,24.6419Q79.56376674613952,25,78.44666674613953,25Q77.32226674613953,25,76.36266674613952,24.6634Q75.41016674613952,24.319699999999997,74.70116674613952,23.668Q73.99936674613953,23.0163,73.60546674613953,22.0566Q73.21156674613952,21.097009999999997,73.21156674613952,19.858069999999998Q73.21156674613952,18.57617,73.61266674613952,17.56641Q74.02086674613953,16.54948,74.74416674613953,15.86914Q75.47466674613953,15.18164,76.44136674613952,14.82357Q77.40816674613953,14.45833,78.53256674613952,14.45833Q79.65686674613953,14.45833,80.60936674613953,14.78776Q81.56906674613953,15.11719,82.27086674613953,15.7832Q82.97986674613952,16.442059999999998,83.37366674613952,17.401690000000002Q83.76756674613952,18.36133,83.76756674613952,19.643230000000003ZM81.08206674613953,19.75065Q81.08206674613953,18.84114,80.86006674613952,18.203780000000002Q80.64516674613952,17.55924,80.27996674613952,17.1582Q79.92186674613953,16.75716,79.44206674613953,16.57096Q78.96936674613953,16.3776,78.46806674613953,16.3776Q77.95966674613953,16.3776,77.49416674613953,16.53516Q77.03576674613953,16.692709999999998,76.68486674613952,17.08659Q76.33396674613952,17.473309999999998,76.11196674613953,18.13216Q75.88996674613952,18.78385,75.88996674613952,19.75065Q75.88996674613952,20.638669999999998,76.11196674613953,21.261699999999998Q76.33396674613952,21.8776,76.69206674613953,22.293Q77.05726674613953,22.7012,77.52996674613952,22.8945Q78.00256674613952,23.0807,78.51106674613952,23.0807Q78.99806674613953,23.0807,79.47066674613953,22.916Q79.94336674613953,22.7441,80.29426674613953,22.3646Q80.64516674613952,21.985,80.86006674613952,21.3405Q81.08206674613953,20.69596,81.08206674613953,19.75065ZM92.62626674613952,14.45833L95.39776674613952,14.45833L91.60936674613953,25L88.73046674613953,25L85.03516674613952,14.45833L87.80666674613953,14.45833L89.61136674613952,20.388019999999997L90.18426674613953,23.0521L90.27016674613952,23.0521L90.82166674613953,20.388019999999997L92.62626674613952,14.45833ZM106.32616674613952,20.5026L99.22196674613953,20.5026L99.22196674613953,20.58138Q99.22196674613953,21.8418,100.11006674613952,22.4648Q101.00516674613952,23.0807,102.45916674613953,23.0807Q103.31816674613953,23.0807,103.98416674613952,22.9518Q104.65716674613952,22.8158,105.27316674613952,22.5866L105.78216674613952,24.319699999999997Q105.14416674613953,24.606099999999998,104.26416674613952,24.8066Q103.38316674613952,25,102.21516674613953,25Q101.04816674613953,25,100.02406674613952,24.706400000000002Q99.00716674613953,24.4056,98.23376674613952,23.7682Q97.46026674613952,23.1237,97.00916674613953,22.1426Q96.56506674613952,21.161459999999998,96.56506674613952,19.79362Q96.56506674613952,18.59766,96.93746674613952,17.61654Q97.30986674613952,16.63542,97.99026674613953,15.933589999999999Q98.67056674613953,15.22461,99.63736674613952,14.84505Q100.61136674613952,14.45833,101.77816674613953,14.45833Q103.86216674613952,14.45833,105.09416674613952,15.747399999999999Q106.32616674613952,17.0293,106.32616674613952,19.30664L106.32616674613952,20.5026ZM103.66916674613952,18.58333Q103.66916674613952,18.15364,103.55516674613952,17.7526Q103.44716674613953,17.3444,103.20416674613952,17.036459999999998Q102.96016674613952,16.72852,102.57316674613952,16.55664Q102.19416674613953,16.3776,101.66416674613953,16.3776Q100.67576674613953,16.3776,100.03836674613953,16.98633Q99.40106674613952,17.59505,99.26496674613952,18.58333L103.66916674613952,18.58333ZM108.61116674613953,25L108.61116674613953,14.45833L110.61616674613953,14.45833L110.94516674613952,16.45638Q111.31816674613953,15.618490000000001,112.13416674613953,15.038409999999999Q112.95016674613953,14.45833,114.16116674613953,14.45833Q114.68316674613952,14.45833,115.07716674613953,14.50846Q115.47816674613952,14.55859,115.74316674613952,14.61588L115.29916674613952,16.764319999999998Q115.06316674613953,16.60677,114.70516674613953,16.49219Q114.35416674613953,16.3776,113.85316674613952,16.3776Q112.72816674613952,16.3776,111.95516674613953,17.1582Q111.18916674613952,17.9388,111.18916674613952,19.628909999999998L111.18916674613952,25L108.61116674613953,25Z" fill="#3D3D3D" fill-opacity="1"/></g></g></svg>